<mxfile host="app.diagrams.net" modified="2023-04-25T20:14:05.341Z" agent="Mozilla/5.0 (Windows NT 10.0; Win64; x64) AppleWebKit/537.36 (KHTML, like Gecko) Chrome/112.0.0.0 Safari/537.36" etag="GycJV-efD7UI9-L4Ml2P" version="21.2.2" type="github">
  <diagram name="Page-1" id="ye20FjE2stgh5rBd-0zj">
    <mxGraphModel dx="2049" dy="1137" grid="1" gridSize="10" guides="1" tooltips="1" connect="1" arrows="1" fold="1" page="1" pageScale="1" pageWidth="850" pageHeight="1100" math="0" shadow="0">
      <root>
        <mxCell id="0" />
        <mxCell id="1" parent="0" />
        <mxCell id="uQmI86SkBU8_97qBk6ha-4" style="edgeStyle=orthogonalEdgeStyle;rounded=0;orthogonalLoop=1;jettySize=auto;html=1;entryX=0.5;entryY=0;entryDx=0;entryDy=0;" edge="1" parent="1" source="uQmI86SkBU8_97qBk6ha-2" target="uQmI86SkBU8_97qBk6ha-3">
          <mxGeometry relative="1" as="geometry" />
        </mxCell>
        <mxCell id="uQmI86SkBU8_97qBk6ha-2" value="Start" style="rounded=0;whiteSpace=wrap;html=1;" vertex="1" parent="1">
          <mxGeometry x="380" y="90" width="120" height="60" as="geometry" />
        </mxCell>
        <mxCell id="uQmI86SkBU8_97qBk6ha-6" style="edgeStyle=orthogonalEdgeStyle;rounded=0;orthogonalLoop=1;jettySize=auto;html=1;exitX=0.5;exitY=1;exitDx=0;exitDy=0;" edge="1" parent="1" source="uQmI86SkBU8_97qBk6ha-3" target="uQmI86SkBU8_97qBk6ha-5">
          <mxGeometry relative="1" as="geometry" />
        </mxCell>
        <mxCell id="uQmI86SkBU8_97qBk6ha-14" style="edgeStyle=orthogonalEdgeStyle;rounded=0;orthogonalLoop=1;jettySize=auto;html=1;exitX=0;exitY=0.5;exitDx=0;exitDy=0;entryX=0.5;entryY=0;entryDx=0;entryDy=0;" edge="1" parent="1" source="uQmI86SkBU8_97qBk6ha-3" target="uQmI86SkBU8_97qBk6ha-13">
          <mxGeometry relative="1" as="geometry" />
        </mxCell>
        <mxCell id="uQmI86SkBU8_97qBk6ha-3" value="Vent på Licenskode" style="rounded=1;whiteSpace=wrap;html=1;" vertex="1" parent="1">
          <mxGeometry x="380" y="190" width="120" height="60" as="geometry" />
        </mxCell>
        <mxCell id="uQmI86SkBU8_97qBk6ha-8" style="edgeStyle=orthogonalEdgeStyle;rounded=0;orthogonalLoop=1;jettySize=auto;html=1;exitX=1;exitY=0.5;exitDx=0;exitDy=0;entryX=0;entryY=0.5;entryDx=0;entryDy=0;" edge="1" parent="1" source="uQmI86SkBU8_97qBk6ha-5" target="uQmI86SkBU8_97qBk6ha-7">
          <mxGeometry relative="1" as="geometry" />
        </mxCell>
        <mxCell id="uQmI86SkBU8_97qBk6ha-12" style="edgeStyle=orthogonalEdgeStyle;rounded=0;orthogonalLoop=1;jettySize=auto;html=1;entryX=0.5;entryY=0;entryDx=0;entryDy=0;" edge="1" parent="1" source="uQmI86SkBU8_97qBk6ha-5" target="uQmI86SkBU8_97qBk6ha-11">
          <mxGeometry relative="1" as="geometry" />
        </mxCell>
        <mxCell id="uQmI86SkBU8_97qBk6ha-5" value="Valider Licenskode" style="rounded=0;whiteSpace=wrap;html=1;" vertex="1" parent="1">
          <mxGeometry x="380" y="290" width="120" height="60" as="geometry" />
        </mxCell>
        <mxCell id="uQmI86SkBU8_97qBk6ha-9" style="edgeStyle=orthogonalEdgeStyle;rounded=0;orthogonalLoop=1;jettySize=auto;html=1;exitX=0;exitY=0.5;exitDx=0;exitDy=0;entryX=1;entryY=0.5;entryDx=0;entryDy=0;" edge="1" parent="1" source="uQmI86SkBU8_97qBk6ha-7" target="uQmI86SkBU8_97qBk6ha-5">
          <mxGeometry relative="1" as="geometry" />
        </mxCell>
        <mxCell id="uQmI86SkBU8_97qBk6ha-7" value="Licensdatabase på nettet" style="whiteSpace=wrap;html=1;aspect=fixed;" vertex="1" parent="1">
          <mxGeometry x="620" y="260" width="120" height="120" as="geometry" />
        </mxCell>
        <mxCell id="uQmI86SkBU8_97qBk6ha-15" style="edgeStyle=orthogonalEdgeStyle;rounded=0;orthogonalLoop=1;jettySize=auto;html=1;exitX=0;exitY=0.5;exitDx=0;exitDy=0;entryX=0.5;entryY=1;entryDx=0;entryDy=0;" edge="1" parent="1" source="uQmI86SkBU8_97qBk6ha-11" target="uQmI86SkBU8_97qBk6ha-13">
          <mxGeometry relative="1" as="geometry" />
        </mxCell>
        <mxCell id="uQmI86SkBU8_97qBk6ha-17" style="edgeStyle=orthogonalEdgeStyle;rounded=0;orthogonalLoop=1;jettySize=auto;html=1;exitX=0.5;exitY=1;exitDx=0;exitDy=0;entryX=0.5;entryY=0;entryDx=0;entryDy=0;" edge="1" parent="1" source="uQmI86SkBU8_97qBk6ha-11" target="uQmI86SkBU8_97qBk6ha-16">
          <mxGeometry relative="1" as="geometry" />
        </mxCell>
        <mxCell id="uQmI86SkBU8_97qBk6ha-85" style="edgeStyle=orthogonalEdgeStyle;rounded=0;orthogonalLoop=1;jettySize=auto;html=1;exitX=0.5;exitY=1;exitDx=0;exitDy=0;entryX=0.5;entryY=0;entryDx=0;entryDy=0;" edge="1" parent="1" source="uQmI86SkBU8_97qBk6ha-11" target="uQmI86SkBU8_97qBk6ha-36">
          <mxGeometry relative="1" as="geometry">
            <Array as="points">
              <mxPoint x="440" y="470" />
              <mxPoint x="570" y="470" />
            </Array>
          </mxGeometry>
        </mxCell>
        <mxCell id="uQmI86SkBU8_97qBk6ha-86" style="edgeStyle=orthogonalEdgeStyle;rounded=0;orthogonalLoop=1;jettySize=auto;html=1;exitX=0.5;exitY=1;exitDx=0;exitDy=0;entryX=0.5;entryY=0;entryDx=0;entryDy=0;" edge="1" parent="1" source="uQmI86SkBU8_97qBk6ha-11" target="uQmI86SkBU8_97qBk6ha-37">
          <mxGeometry relative="1" as="geometry">
            <Array as="points">
              <mxPoint x="440" y="470" />
              <mxPoint x="700" y="470" />
            </Array>
          </mxGeometry>
        </mxCell>
        <mxCell id="uQmI86SkBU8_97qBk6ha-87" style="edgeStyle=orthogonalEdgeStyle;rounded=0;orthogonalLoop=1;jettySize=auto;html=1;exitX=0.5;exitY=1;exitDx=0;exitDy=0;" edge="1" parent="1" source="uQmI86SkBU8_97qBk6ha-11" target="uQmI86SkBU8_97qBk6ha-38">
          <mxGeometry relative="1" as="geometry">
            <Array as="points">
              <mxPoint x="440" y="470" />
              <mxPoint x="830" y="470" />
            </Array>
          </mxGeometry>
        </mxCell>
        <mxCell id="uQmI86SkBU8_97qBk6ha-11" value="Hovedmenu" style="rounded=1;whiteSpace=wrap;html=1;" vertex="1" parent="1">
          <mxGeometry x="380" y="390" width="120" height="60" as="geometry" />
        </mxCell>
        <mxCell id="uQmI86SkBU8_97qBk6ha-13" value="Exit" style="ellipse;whiteSpace=wrap;html=1;" vertex="1" parent="1">
          <mxGeometry x="230" y="280" width="60" height="60" as="geometry" />
        </mxCell>
        <mxCell id="uQmI86SkBU8_97qBk6ha-19" style="edgeStyle=orthogonalEdgeStyle;rounded=0;orthogonalLoop=1;jettySize=auto;html=1;exitX=0.5;exitY=1;exitDx=0;exitDy=0;" edge="1" parent="1" source="uQmI86SkBU8_97qBk6ha-16" target="uQmI86SkBU8_97qBk6ha-18">
          <mxGeometry relative="1" as="geometry" />
        </mxCell>
        <mxCell id="uQmI86SkBU8_97qBk6ha-34" style="edgeStyle=orthogonalEdgeStyle;rounded=0;orthogonalLoop=1;jettySize=auto;html=1;entryX=0.5;entryY=1;entryDx=0;entryDy=0;" edge="1" parent="1" source="uQmI86SkBU8_97qBk6ha-16" target="uQmI86SkBU8_97qBk6ha-13">
          <mxGeometry relative="1" as="geometry">
            <Array as="points">
              <mxPoint x="440" y="550" />
              <mxPoint x="260" y="550" />
            </Array>
          </mxGeometry>
        </mxCell>
        <mxCell id="uQmI86SkBU8_97qBk6ha-16" value="Eboks" style="rounded=0;whiteSpace=wrap;html=1;" vertex="1" parent="1">
          <mxGeometry x="380" y="480" width="120" height="60" as="geometry" />
        </mxCell>
        <mxCell id="uQmI86SkBU8_97qBk6ha-21" style="edgeStyle=orthogonalEdgeStyle;rounded=0;orthogonalLoop=1;jettySize=auto;html=1;exitX=0.5;exitY=1;exitDx=0;exitDy=0;entryX=0.5;entryY=0;entryDx=0;entryDy=0;" edge="1" parent="1" source="uQmI86SkBU8_97qBk6ha-18" target="uQmI86SkBU8_97qBk6ha-20">
          <mxGeometry relative="1" as="geometry" />
        </mxCell>
        <mxCell id="uQmI86SkBU8_97qBk6ha-18" value="Start Selenium" style="rounded=1;whiteSpace=wrap;html=1;" vertex="1" parent="1">
          <mxGeometry x="380" y="570" width="120" height="60" as="geometry" />
        </mxCell>
        <mxCell id="uQmI86SkBU8_97qBk6ha-23" style="edgeStyle=orthogonalEdgeStyle;rounded=0;orthogonalLoop=1;jettySize=auto;html=1;exitX=0.5;exitY=1;exitDx=0;exitDy=0;entryX=0.5;entryY=0;entryDx=0;entryDy=0;" edge="1" parent="1" source="uQmI86SkBU8_97qBk6ha-20" target="uQmI86SkBU8_97qBk6ha-22">
          <mxGeometry relative="1" as="geometry" />
        </mxCell>
        <mxCell id="uQmI86SkBU8_97qBk6ha-20" value="Bruger logger indtaster MitId på oplysninger" style="rounded=0;whiteSpace=wrap;html=1;" vertex="1" parent="1">
          <mxGeometry x="380" y="660" width="120" height="60" as="geometry" />
        </mxCell>
        <mxCell id="uQmI86SkBU8_97qBk6ha-25" style="edgeStyle=orthogonalEdgeStyle;rounded=0;orthogonalLoop=1;jettySize=auto;html=1;exitX=0.5;exitY=1;exitDx=0;exitDy=0;entryX=0.5;entryY=0;entryDx=0;entryDy=0;" edge="1" parent="1" source="uQmI86SkBU8_97qBk6ha-22" target="uQmI86SkBU8_97qBk6ha-24">
          <mxGeometry relative="1" as="geometry" />
        </mxCell>
        <mxCell id="uQmI86SkBU8_97qBk6ha-22" value="Selenium sender MitID oplysninger til side" style="rounded=1;whiteSpace=wrap;html=1;" vertex="1" parent="1">
          <mxGeometry x="380" y="750" width="120" height="60" as="geometry" />
        </mxCell>
        <mxCell id="uQmI86SkBU8_97qBk6ha-27" style="edgeStyle=orthogonalEdgeStyle;rounded=0;orthogonalLoop=1;jettySize=auto;html=1;exitX=0.5;exitY=1;exitDx=0;exitDy=0;entryX=0.5;entryY=0;entryDx=0;entryDy=0;" edge="1" parent="1" source="uQmI86SkBU8_97qBk6ha-24" target="uQmI86SkBU8_97qBk6ha-26">
          <mxGeometry relative="1" as="geometry" />
        </mxCell>
        <mxCell id="uQmI86SkBU8_97qBk6ha-33" style="edgeStyle=orthogonalEdgeStyle;rounded=0;orthogonalLoop=1;jettySize=auto;html=1;exitX=0;exitY=0.5;exitDx=0;exitDy=0;entryX=0.5;entryY=1;entryDx=0;entryDy=0;" edge="1" parent="1" source="uQmI86SkBU8_97qBk6ha-24" target="uQmI86SkBU8_97qBk6ha-13">
          <mxGeometry relative="1" as="geometry">
            <Array as="points">
              <mxPoint x="440" y="870" />
              <mxPoint x="440" y="910" />
              <mxPoint x="260" y="910" />
            </Array>
          </mxGeometry>
        </mxCell>
        <mxCell id="uQmI86SkBU8_97qBk6ha-24" value="Logget på Eboks" style="rounded=0;whiteSpace=wrap;html=1;" vertex="1" parent="1">
          <mxGeometry x="380" y="840" width="120" height="60" as="geometry" />
        </mxCell>
        <mxCell id="uQmI86SkBU8_97qBk6ha-29" style="edgeStyle=orthogonalEdgeStyle;rounded=0;orthogonalLoop=1;jettySize=auto;html=1;exitX=0.5;exitY=1;exitDx=0;exitDy=0;entryX=0.5;entryY=0;entryDx=0;entryDy=0;" edge="1" parent="1" source="uQmI86SkBU8_97qBk6ha-26" target="uQmI86SkBU8_97qBk6ha-28">
          <mxGeometry relative="1" as="geometry" />
        </mxCell>
        <mxCell id="uQmI86SkBU8_97qBk6ha-26" value="Selenium henter oplysninger fra siden" style="rounded=1;whiteSpace=wrap;html=1;" vertex="1" parent="1">
          <mxGeometry x="380" y="920" width="120" height="60" as="geometry" />
        </mxCell>
        <mxCell id="uQmI86SkBU8_97qBk6ha-31" style="edgeStyle=orthogonalEdgeStyle;rounded=0;orthogonalLoop=1;jettySize=auto;html=1;exitX=0.5;exitY=1;exitDx=0;exitDy=0;entryX=0.5;entryY=0;entryDx=0;entryDy=0;" edge="1" parent="1" source="uQmI86SkBU8_97qBk6ha-28" target="uQmI86SkBU8_97qBk6ha-30">
          <mxGeometry relative="1" as="geometry" />
        </mxCell>
        <mxCell id="uQmI86SkBU8_97qBk6ha-28" value="Brugergrænseflade viser oplysninger fra eboks" style="rounded=0;whiteSpace=wrap;html=1;" vertex="1" parent="1">
          <mxGeometry x="380" y="1000" width="120" height="60" as="geometry" />
        </mxCell>
        <mxCell id="uQmI86SkBU8_97qBk6ha-92" style="edgeStyle=orthogonalEdgeStyle;rounded=0;orthogonalLoop=1;jettySize=auto;html=1;exitX=0.5;exitY=1;exitDx=0;exitDy=0;entryX=0.5;entryY=1;entryDx=0;entryDy=0;" edge="1" parent="1" source="uQmI86SkBU8_97qBk6ha-30" target="uQmI86SkBU8_97qBk6ha-13">
          <mxGeometry relative="1" as="geometry" />
        </mxCell>
        <mxCell id="uQmI86SkBU8_97qBk6ha-30" value="Bruger kan nu frit benytte siden" style="rounded=1;whiteSpace=wrap;html=1;" vertex="1" parent="1">
          <mxGeometry x="380" y="1080" width="120" height="60" as="geometry" />
        </mxCell>
        <mxCell id="uQmI86SkBU8_97qBk6ha-39" style="edgeStyle=orthogonalEdgeStyle;rounded=0;orthogonalLoop=1;jettySize=auto;html=1;exitX=0;exitY=0.5;exitDx=0;exitDy=0;entryX=0.5;entryY=1;entryDx=0;entryDy=0;" edge="1" parent="1" source="uQmI86SkBU8_97qBk6ha-36" target="uQmI86SkBU8_97qBk6ha-13">
          <mxGeometry relative="1" as="geometry">
            <Array as="points">
              <mxPoint x="570" y="510" />
              <mxPoint x="570" y="550" />
              <mxPoint x="260" y="550" />
            </Array>
          </mxGeometry>
        </mxCell>
        <mxCell id="uQmI86SkBU8_97qBk6ha-63" style="edgeStyle=orthogonalEdgeStyle;rounded=0;orthogonalLoop=1;jettySize=auto;html=1;exitX=0.5;exitY=1;exitDx=0;exitDy=0;entryX=0.5;entryY=0;entryDx=0;entryDy=0;" edge="1" parent="1" source="uQmI86SkBU8_97qBk6ha-36" target="uQmI86SkBU8_97qBk6ha-42">
          <mxGeometry relative="1" as="geometry" />
        </mxCell>
        <mxCell id="uQmI86SkBU8_97qBk6ha-36" value="Eboks" style="rounded=0;whiteSpace=wrap;html=1;" vertex="1" parent="1">
          <mxGeometry x="510" y="480" width="120" height="60" as="geometry" />
        </mxCell>
        <mxCell id="uQmI86SkBU8_97qBk6ha-40" style="edgeStyle=orthogonalEdgeStyle;rounded=0;orthogonalLoop=1;jettySize=auto;html=1;exitX=0;exitY=0.5;exitDx=0;exitDy=0;entryX=0.5;entryY=1;entryDx=0;entryDy=0;" edge="1" parent="1" source="uQmI86SkBU8_97qBk6ha-37" target="uQmI86SkBU8_97qBk6ha-13">
          <mxGeometry relative="1" as="geometry">
            <Array as="points">
              <mxPoint x="700" y="510" />
              <mxPoint x="700" y="550" />
              <mxPoint x="260" y="550" />
            </Array>
          </mxGeometry>
        </mxCell>
        <mxCell id="uQmI86SkBU8_97qBk6ha-70" style="edgeStyle=orthogonalEdgeStyle;rounded=0;orthogonalLoop=1;jettySize=auto;html=1;exitX=0.5;exitY=1;exitDx=0;exitDy=0;entryX=0.5;entryY=0;entryDx=0;entryDy=0;" edge="1" parent="1" source="uQmI86SkBU8_97qBk6ha-37" target="uQmI86SkBU8_97qBk6ha-43">
          <mxGeometry relative="1" as="geometry" />
        </mxCell>
        <mxCell id="uQmI86SkBU8_97qBk6ha-37" value="Eboks" style="rounded=0;whiteSpace=wrap;html=1;" vertex="1" parent="1">
          <mxGeometry x="640" y="480" width="120" height="60" as="geometry" />
        </mxCell>
        <mxCell id="uQmI86SkBU8_97qBk6ha-41" style="edgeStyle=orthogonalEdgeStyle;rounded=0;orthogonalLoop=1;jettySize=auto;html=1;exitX=0;exitY=0.5;exitDx=0;exitDy=0;entryX=0.5;entryY=1;entryDx=0;entryDy=0;" edge="1" parent="1" source="uQmI86SkBU8_97qBk6ha-38" target="uQmI86SkBU8_97qBk6ha-13">
          <mxGeometry relative="1" as="geometry">
            <Array as="points">
              <mxPoint x="830" y="510" />
              <mxPoint x="830" y="550" />
              <mxPoint x="260" y="550" />
            </Array>
          </mxGeometry>
        </mxCell>
        <mxCell id="uQmI86SkBU8_97qBk6ha-84" style="edgeStyle=orthogonalEdgeStyle;rounded=0;orthogonalLoop=1;jettySize=auto;html=1;exitX=0.5;exitY=1;exitDx=0;exitDy=0;entryX=0.5;entryY=0;entryDx=0;entryDy=0;" edge="1" parent="1" source="uQmI86SkBU8_97qBk6ha-38" target="uQmI86SkBU8_97qBk6ha-44">
          <mxGeometry relative="1" as="geometry" />
        </mxCell>
        <mxCell id="uQmI86SkBU8_97qBk6ha-38" value="Eboks" style="rounded=0;whiteSpace=wrap;html=1;" vertex="1" parent="1">
          <mxGeometry x="770" y="480" width="120" height="60" as="geometry" />
        </mxCell>
        <mxCell id="uQmI86SkBU8_97qBk6ha-64" style="edgeStyle=orthogonalEdgeStyle;rounded=0;orthogonalLoop=1;jettySize=auto;html=1;exitX=0.5;exitY=1;exitDx=0;exitDy=0;entryX=0.5;entryY=0;entryDx=0;entryDy=0;" edge="1" parent="1" source="uQmI86SkBU8_97qBk6ha-42" target="uQmI86SkBU8_97qBk6ha-45">
          <mxGeometry relative="1" as="geometry" />
        </mxCell>
        <mxCell id="uQmI86SkBU8_97qBk6ha-42" value="Start Selenium" style="rounded=1;whiteSpace=wrap;html=1;" vertex="1" parent="1">
          <mxGeometry x="510" y="570" width="120" height="60" as="geometry" />
        </mxCell>
        <mxCell id="uQmI86SkBU8_97qBk6ha-71" style="edgeStyle=orthogonalEdgeStyle;rounded=0;orthogonalLoop=1;jettySize=auto;html=1;exitX=0.5;exitY=1;exitDx=0;exitDy=0;entryX=0.5;entryY=0;entryDx=0;entryDy=0;" edge="1" parent="1" source="uQmI86SkBU8_97qBk6ha-43" target="uQmI86SkBU8_97qBk6ha-46">
          <mxGeometry relative="1" as="geometry" />
        </mxCell>
        <mxCell id="uQmI86SkBU8_97qBk6ha-43" value="Start Selenium" style="rounded=1;whiteSpace=wrap;html=1;" vertex="1" parent="1">
          <mxGeometry x="640" y="570" width="120" height="60" as="geometry" />
        </mxCell>
        <mxCell id="uQmI86SkBU8_97qBk6ha-83" style="edgeStyle=orthogonalEdgeStyle;rounded=0;orthogonalLoop=1;jettySize=auto;html=1;exitX=0.5;exitY=1;exitDx=0;exitDy=0;entryX=0.5;entryY=0;entryDx=0;entryDy=0;" edge="1" parent="1" source="uQmI86SkBU8_97qBk6ha-44" target="uQmI86SkBU8_97qBk6ha-47">
          <mxGeometry relative="1" as="geometry" />
        </mxCell>
        <mxCell id="uQmI86SkBU8_97qBk6ha-44" value="Start Selenium" style="rounded=1;whiteSpace=wrap;html=1;" vertex="1" parent="1">
          <mxGeometry x="770" y="570" width="120" height="60" as="geometry" />
        </mxCell>
        <mxCell id="uQmI86SkBU8_97qBk6ha-65" style="edgeStyle=orthogonalEdgeStyle;rounded=0;orthogonalLoop=1;jettySize=auto;html=1;exitX=0.5;exitY=1;exitDx=0;exitDy=0;entryX=0.5;entryY=0;entryDx=0;entryDy=0;" edge="1" parent="1" source="uQmI86SkBU8_97qBk6ha-45" target="uQmI86SkBU8_97qBk6ha-48">
          <mxGeometry relative="1" as="geometry" />
        </mxCell>
        <mxCell id="uQmI86SkBU8_97qBk6ha-45" value="Bruger logger indtaster MitId på oplysninger" style="rounded=0;whiteSpace=wrap;html=1;" vertex="1" parent="1">
          <mxGeometry x="510" y="660" width="120" height="60" as="geometry" />
        </mxCell>
        <mxCell id="uQmI86SkBU8_97qBk6ha-73" style="edgeStyle=orthogonalEdgeStyle;rounded=0;orthogonalLoop=1;jettySize=auto;html=1;exitX=0.5;exitY=1;exitDx=0;exitDy=0;" edge="1" parent="1" source="uQmI86SkBU8_97qBk6ha-46" target="uQmI86SkBU8_97qBk6ha-49">
          <mxGeometry relative="1" as="geometry" />
        </mxCell>
        <mxCell id="uQmI86SkBU8_97qBk6ha-46" value="Bruger logger indtaster MitId på oplysninger" style="rounded=0;whiteSpace=wrap;html=1;" vertex="1" parent="1">
          <mxGeometry x="640" y="660" width="120" height="60" as="geometry" />
        </mxCell>
        <mxCell id="uQmI86SkBU8_97qBk6ha-82" style="edgeStyle=orthogonalEdgeStyle;rounded=0;orthogonalLoop=1;jettySize=auto;html=1;exitX=0.5;exitY=1;exitDx=0;exitDy=0;entryX=0.5;entryY=0;entryDx=0;entryDy=0;" edge="1" parent="1" source="uQmI86SkBU8_97qBk6ha-47" target="uQmI86SkBU8_97qBk6ha-50">
          <mxGeometry relative="1" as="geometry" />
        </mxCell>
        <mxCell id="uQmI86SkBU8_97qBk6ha-47" value="Bruger logger indtaster MitId på oplysninger" style="rounded=0;whiteSpace=wrap;html=1;" vertex="1" parent="1">
          <mxGeometry x="770" y="660" width="120" height="60" as="geometry" />
        </mxCell>
        <mxCell id="uQmI86SkBU8_97qBk6ha-66" style="edgeStyle=orthogonalEdgeStyle;rounded=0;orthogonalLoop=1;jettySize=auto;html=1;exitX=0.5;exitY=1;exitDx=0;exitDy=0;entryX=0.5;entryY=0;entryDx=0;entryDy=0;" edge="1" parent="1" source="uQmI86SkBU8_97qBk6ha-48" target="uQmI86SkBU8_97qBk6ha-51">
          <mxGeometry relative="1" as="geometry" />
        </mxCell>
        <mxCell id="uQmI86SkBU8_97qBk6ha-48" value="Selenium sender MitID oplysninger til side" style="rounded=1;whiteSpace=wrap;html=1;" vertex="1" parent="1">
          <mxGeometry x="510" y="750" width="120" height="60" as="geometry" />
        </mxCell>
        <mxCell id="uQmI86SkBU8_97qBk6ha-74" style="edgeStyle=orthogonalEdgeStyle;rounded=0;orthogonalLoop=1;jettySize=auto;html=1;exitX=0.5;exitY=1;exitDx=0;exitDy=0;" edge="1" parent="1" source="uQmI86SkBU8_97qBk6ha-49" target="uQmI86SkBU8_97qBk6ha-52">
          <mxGeometry relative="1" as="geometry" />
        </mxCell>
        <mxCell id="uQmI86SkBU8_97qBk6ha-49" value="Selenium sender MitID oplysninger til side" style="rounded=1;whiteSpace=wrap;html=1;" vertex="1" parent="1">
          <mxGeometry x="640" y="750" width="120" height="60" as="geometry" />
        </mxCell>
        <mxCell id="uQmI86SkBU8_97qBk6ha-81" style="edgeStyle=orthogonalEdgeStyle;rounded=0;orthogonalLoop=1;jettySize=auto;html=1;exitX=0.5;exitY=1;exitDx=0;exitDy=0;entryX=0.5;entryY=0;entryDx=0;entryDy=0;" edge="1" parent="1" source="uQmI86SkBU8_97qBk6ha-50" target="uQmI86SkBU8_97qBk6ha-53">
          <mxGeometry relative="1" as="geometry" />
        </mxCell>
        <mxCell id="uQmI86SkBU8_97qBk6ha-50" value="Selenium sender MitID oplysninger til side" style="rounded=1;whiteSpace=wrap;html=1;" vertex="1" parent="1">
          <mxGeometry x="770" y="750" width="120" height="60" as="geometry" />
        </mxCell>
        <mxCell id="uQmI86SkBU8_97qBk6ha-67" style="edgeStyle=orthogonalEdgeStyle;rounded=0;orthogonalLoop=1;jettySize=auto;html=1;exitX=0.5;exitY=1;exitDx=0;exitDy=0;entryX=0.5;entryY=0;entryDx=0;entryDy=0;" edge="1" parent="1" source="uQmI86SkBU8_97qBk6ha-51" target="uQmI86SkBU8_97qBk6ha-54">
          <mxGeometry relative="1" as="geometry" />
        </mxCell>
        <mxCell id="uQmI86SkBU8_97qBk6ha-88" style="edgeStyle=orthogonalEdgeStyle;rounded=0;orthogonalLoop=1;jettySize=auto;html=1;exitX=0.5;exitY=1;exitDx=0;exitDy=0;" edge="1" parent="1" source="uQmI86SkBU8_97qBk6ha-51" target="uQmI86SkBU8_97qBk6ha-54">
          <mxGeometry relative="1" as="geometry" />
        </mxCell>
        <mxCell id="uQmI86SkBU8_97qBk6ha-89" style="edgeStyle=orthogonalEdgeStyle;rounded=0;orthogonalLoop=1;jettySize=auto;html=1;exitX=0.5;exitY=1;exitDx=0;exitDy=0;entryX=0.5;entryY=1;entryDx=0;entryDy=0;" edge="1" parent="1" source="uQmI86SkBU8_97qBk6ha-51" target="uQmI86SkBU8_97qBk6ha-13">
          <mxGeometry relative="1" as="geometry">
            <Array as="points">
              <mxPoint x="570" y="910" />
              <mxPoint x="260" y="910" />
            </Array>
          </mxGeometry>
        </mxCell>
        <mxCell id="uQmI86SkBU8_97qBk6ha-51" value="Logget på Sundhed.dk" style="rounded=0;whiteSpace=wrap;html=1;" vertex="1" parent="1">
          <mxGeometry x="510" y="840" width="120" height="60" as="geometry" />
        </mxCell>
        <mxCell id="uQmI86SkBU8_97qBk6ha-75" style="edgeStyle=orthogonalEdgeStyle;rounded=0;orthogonalLoop=1;jettySize=auto;html=1;exitX=0.5;exitY=1;exitDx=0;exitDy=0;entryX=0.5;entryY=0;entryDx=0;entryDy=0;" edge="1" parent="1" source="uQmI86SkBU8_97qBk6ha-52" target="uQmI86SkBU8_97qBk6ha-55">
          <mxGeometry relative="1" as="geometry" />
        </mxCell>
        <mxCell id="uQmI86SkBU8_97qBk6ha-90" style="edgeStyle=orthogonalEdgeStyle;rounded=0;orthogonalLoop=1;jettySize=auto;html=1;exitX=0.5;exitY=1;exitDx=0;exitDy=0;entryX=0.5;entryY=1;entryDx=0;entryDy=0;" edge="1" parent="1" source="uQmI86SkBU8_97qBk6ha-52" target="uQmI86SkBU8_97qBk6ha-13">
          <mxGeometry relative="1" as="geometry">
            <Array as="points">
              <mxPoint x="700" y="910" />
              <mxPoint x="260" y="910" />
            </Array>
          </mxGeometry>
        </mxCell>
        <mxCell id="uQmI86SkBU8_97qBk6ha-52" value="Logget på Netbank" style="rounded=0;whiteSpace=wrap;html=1;" vertex="1" parent="1">
          <mxGeometry x="640" y="840" width="120" height="60" as="geometry" />
        </mxCell>
        <mxCell id="uQmI86SkBU8_97qBk6ha-80" style="edgeStyle=orthogonalEdgeStyle;rounded=0;orthogonalLoop=1;jettySize=auto;html=1;exitX=0.5;exitY=1;exitDx=0;exitDy=0;entryX=0.5;entryY=0;entryDx=0;entryDy=0;" edge="1" parent="1" source="uQmI86SkBU8_97qBk6ha-53" target="uQmI86SkBU8_97qBk6ha-56">
          <mxGeometry relative="1" as="geometry" />
        </mxCell>
        <mxCell id="uQmI86SkBU8_97qBk6ha-91" style="edgeStyle=orthogonalEdgeStyle;rounded=0;orthogonalLoop=1;jettySize=auto;html=1;exitX=0.5;exitY=1;exitDx=0;exitDy=0;entryX=0.5;entryY=1;entryDx=0;entryDy=0;" edge="1" parent="1" source="uQmI86SkBU8_97qBk6ha-53" target="uQmI86SkBU8_97qBk6ha-13">
          <mxGeometry relative="1" as="geometry">
            <Array as="points">
              <mxPoint x="830" y="910" />
              <mxPoint x="260" y="910" />
            </Array>
          </mxGeometry>
        </mxCell>
        <mxCell id="uQmI86SkBU8_97qBk6ha-53" value="Logget på Borger.dk" style="rounded=0;whiteSpace=wrap;html=1;" vertex="1" parent="1">
          <mxGeometry x="770" y="840" width="120" height="60" as="geometry" />
        </mxCell>
        <mxCell id="uQmI86SkBU8_97qBk6ha-68" style="edgeStyle=orthogonalEdgeStyle;rounded=0;orthogonalLoop=1;jettySize=auto;html=1;exitX=0.5;exitY=1;exitDx=0;exitDy=0;entryX=0.5;entryY=0;entryDx=0;entryDy=0;" edge="1" parent="1" source="uQmI86SkBU8_97qBk6ha-54" target="uQmI86SkBU8_97qBk6ha-57">
          <mxGeometry relative="1" as="geometry" />
        </mxCell>
        <mxCell id="uQmI86SkBU8_97qBk6ha-54" value="Selenium henter oplysninger fra siden" style="rounded=1;whiteSpace=wrap;html=1;" vertex="1" parent="1">
          <mxGeometry x="510" y="920" width="120" height="60" as="geometry" />
        </mxCell>
        <mxCell id="uQmI86SkBU8_97qBk6ha-76" style="edgeStyle=orthogonalEdgeStyle;rounded=0;orthogonalLoop=1;jettySize=auto;html=1;exitX=0.5;exitY=1;exitDx=0;exitDy=0;entryX=0.5;entryY=0;entryDx=0;entryDy=0;" edge="1" parent="1" source="uQmI86SkBU8_97qBk6ha-55" target="uQmI86SkBU8_97qBk6ha-58">
          <mxGeometry relative="1" as="geometry" />
        </mxCell>
        <mxCell id="uQmI86SkBU8_97qBk6ha-55" value="Selenium henter oplysninger fra siden" style="rounded=1;whiteSpace=wrap;html=1;" vertex="1" parent="1">
          <mxGeometry x="640" y="920" width="120" height="60" as="geometry" />
        </mxCell>
        <mxCell id="uQmI86SkBU8_97qBk6ha-79" style="edgeStyle=orthogonalEdgeStyle;rounded=0;orthogonalLoop=1;jettySize=auto;html=1;exitX=0.5;exitY=1;exitDx=0;exitDy=0;" edge="1" parent="1" source="uQmI86SkBU8_97qBk6ha-56" target="uQmI86SkBU8_97qBk6ha-59">
          <mxGeometry relative="1" as="geometry" />
        </mxCell>
        <mxCell id="uQmI86SkBU8_97qBk6ha-56" value="Selenium henter oplysninger fra siden" style="rounded=1;whiteSpace=wrap;html=1;" vertex="1" parent="1">
          <mxGeometry x="770" y="920" width="120" height="60" as="geometry" />
        </mxCell>
        <mxCell id="uQmI86SkBU8_97qBk6ha-69" style="edgeStyle=orthogonalEdgeStyle;rounded=0;orthogonalLoop=1;jettySize=auto;html=1;exitX=0.5;exitY=1;exitDx=0;exitDy=0;entryX=0.5;entryY=0;entryDx=0;entryDy=0;" edge="1" parent="1" source="uQmI86SkBU8_97qBk6ha-57" target="uQmI86SkBU8_97qBk6ha-60">
          <mxGeometry relative="1" as="geometry" />
        </mxCell>
        <mxCell id="uQmI86SkBU8_97qBk6ha-57" value="Brugergrænseflade viser oplysninger fra eboks" style="rounded=0;whiteSpace=wrap;html=1;" vertex="1" parent="1">
          <mxGeometry x="510" y="1000" width="120" height="60" as="geometry" />
        </mxCell>
        <mxCell id="uQmI86SkBU8_97qBk6ha-77" style="edgeStyle=orthogonalEdgeStyle;rounded=0;orthogonalLoop=1;jettySize=auto;html=1;exitX=0.5;exitY=1;exitDx=0;exitDy=0;entryX=0.5;entryY=0;entryDx=0;entryDy=0;" edge="1" parent="1" source="uQmI86SkBU8_97qBk6ha-58" target="uQmI86SkBU8_97qBk6ha-61">
          <mxGeometry relative="1" as="geometry" />
        </mxCell>
        <mxCell id="uQmI86SkBU8_97qBk6ha-58" value="Brugergrænseflade viser oplysninger fra eboks" style="rounded=0;whiteSpace=wrap;html=1;" vertex="1" parent="1">
          <mxGeometry x="640" y="1000" width="120" height="60" as="geometry" />
        </mxCell>
        <mxCell id="uQmI86SkBU8_97qBk6ha-78" style="edgeStyle=orthogonalEdgeStyle;rounded=0;orthogonalLoop=1;jettySize=auto;html=1;exitX=0.5;exitY=1;exitDx=0;exitDy=0;entryX=0.5;entryY=0;entryDx=0;entryDy=0;" edge="1" parent="1" source="uQmI86SkBU8_97qBk6ha-59" target="uQmI86SkBU8_97qBk6ha-62">
          <mxGeometry relative="1" as="geometry" />
        </mxCell>
        <mxCell id="uQmI86SkBU8_97qBk6ha-59" value="Brugergrænseflade viser oplysninger fra eboks" style="rounded=0;whiteSpace=wrap;html=1;" vertex="1" parent="1">
          <mxGeometry x="770" y="1000" width="120" height="60" as="geometry" />
        </mxCell>
        <mxCell id="uQmI86SkBU8_97qBk6ha-94" style="edgeStyle=orthogonalEdgeStyle;rounded=0;orthogonalLoop=1;jettySize=auto;html=1;exitX=0.5;exitY=1;exitDx=0;exitDy=0;entryX=0.5;entryY=1;entryDx=0;entryDy=0;" edge="1" parent="1" source="uQmI86SkBU8_97qBk6ha-60" target="uQmI86SkBU8_97qBk6ha-13">
          <mxGeometry relative="1" as="geometry" />
        </mxCell>
        <mxCell id="uQmI86SkBU8_97qBk6ha-60" value="Bruger kan nu frit benytte siden" style="rounded=1;whiteSpace=wrap;html=1;" vertex="1" parent="1">
          <mxGeometry x="510" y="1080" width="120" height="60" as="geometry" />
        </mxCell>
        <mxCell id="uQmI86SkBU8_97qBk6ha-95" style="edgeStyle=orthogonalEdgeStyle;rounded=0;orthogonalLoop=1;jettySize=auto;html=1;exitX=0.5;exitY=1;exitDx=0;exitDy=0;entryX=0.5;entryY=1;entryDx=0;entryDy=0;" edge="1" parent="1" source="uQmI86SkBU8_97qBk6ha-61" target="uQmI86SkBU8_97qBk6ha-13">
          <mxGeometry relative="1" as="geometry" />
        </mxCell>
        <mxCell id="uQmI86SkBU8_97qBk6ha-61" value="Bruger kan nu frit benytte siden" style="rounded=1;whiteSpace=wrap;html=1;" vertex="1" parent="1">
          <mxGeometry x="640" y="1080" width="120" height="60" as="geometry" />
        </mxCell>
        <mxCell id="uQmI86SkBU8_97qBk6ha-96" style="edgeStyle=orthogonalEdgeStyle;rounded=0;orthogonalLoop=1;jettySize=auto;html=1;exitX=0.5;exitY=1;exitDx=0;exitDy=0;entryX=0.5;entryY=1;entryDx=0;entryDy=0;" edge="1" parent="1" source="uQmI86SkBU8_97qBk6ha-62" target="uQmI86SkBU8_97qBk6ha-13">
          <mxGeometry relative="1" as="geometry" />
        </mxCell>
        <mxCell id="uQmI86SkBU8_97qBk6ha-62" value="Bruger kan nu frit benytte siden" style="rounded=1;whiteSpace=wrap;html=1;" vertex="1" parent="1">
          <mxGeometry x="770" y="1080" width="120" height="60" as="geometry" />
        </mxCell>
      </root>
    </mxGraphModel>
  </diagram>
</mxfile>
